inDegrees=no
num_controls=7
num_derivatives=13
num_iterations=110
num_multipliers=7
num_parameters=0
num_slacks=7
num_states=26
objective=4.923943
objective_accelerations=0.547284
objective_balance=0.011362
objective_effort=0.150367
objective_height=4.188337
objective_ligament=0.026594
solver_duration=1224.401624
status=Solve_Succeeded
success=true
DataType=double
version=3
OpenSimVersion=4.4-2022-07-23-0e9fedc
endheader
time	/jointset/ground_pelvis/pelvis_tilt/value	/jointset/ground_pelvis/pelvis_tx/value	/jointset/ground_pelvis/pelvis_ty/value	/jointset/hip_l/hip_flexion_l/value	/jointset/hip_l/hip_adduction_l/value	/jointset/hip_l/hip_rotation_l/value	/jointset/back/lumbar_extension/value	/jointset/patellofemoral_l/patellar_flexion_l/value	/jointset/knee_l/knee_flexion_l/value	/jointset/knee_l/knee_adduction_l/value	/jointset/knee_l/knee_rotation_l/value	/jointset/ankle_l/ankle_angle_l/value	/jointset/subtalar_l/subtalar_angle_l/value	/jointset/ground_pelvis/pelvis_tilt/speed	/jointset/ground_pelvis/pelvis_tx/speed	/jointset/ground_pelvis/pelvis_ty/speed	/jointset/hip_l/hip_flexion_l/speed	/jointset/hip_l/hip_adduction_l/speed	/jointset/hip_l/hip_rotation_l/speed	/jointset/back/lumbar_extension/speed	/jointset/patellofemoral_l/patellar_flexion_l/speed	/jointset/knee_l/knee_flexion_l/speed	/jointset/knee_l/knee_adduction_l/speed	/jointset/knee_l/knee_rotation_l/speed	/jointset/ankle_l/ankle_angle_l/speed	/jointset/subtalar_l/subtalar_angle_l/speed	/forceset/tau_hip_flexion_l	/forceset/tau_hip_adduction_l	/forceset/tau_hip_rotation_l	/forceset/tau_knee_flexion_l	/forceset/tau_ankle_angle_l	/forceset/tau_subtalar_angle_l	/forceset/tau_lumbar_extension	lambda_cid13_p0	lambda_cid13_p1	lambda_cid13_p2	lambda_cid13_p3	lambda_cid13_p4	lambda_cid13_p5	lambda_cid14_p0	/jointset/ground_pelvis/pelvis_tilt/accel	/jointset/ground_pelvis/pelvis_tx/accel	/jointset/ground_pelvis/pelvis_ty/accel	/jointset/hip_l/hip_flexion_l/accel	/jointset/hip_l/hip_adduction_l/accel	/jointset/hip_l/hip_rotation_l/accel	/jointset/back/lumbar_extension/accel	/jointset/patellofemoral_l/patellar_flexion_l/accel	/jointset/knee_l/knee_flexion_l/accel	/jointset/knee_l/knee_adduction_l/accel	/jointset/knee_l/knee_rotation_l/accel	/jointset/ankle_l/ankle_angle_l/accel	/jointset/subtalar_l/subtalar_angle_l/accel	gamma_cid13_p0	gamma_cid13_p1	gamma_cid13_p2	gamma_cid13_p3	gamma_cid13_p4	gamma_cid13_p5	gamma_cid14_p0
1.5	-0.2833461115478154	0.07532636863074722	0.8133018554868762	0.8570826568062543	-0.3719269340997888	-0.04119257927650568	-0.3128983412433299	0.7365314966017062	0.7365314966016889	-0.09075008849072602	-0.1590925939565736	0.272427908343753	0.1358389775970366	0.3289534919068055	0.2345038124504247	0.3885534946770225	-1.919390600012646	0.01509961432618992	-0.5485667459391681	0.6184804455915137	-1.9860053091303	-1.986005309130413	-0.2257882002098049	0.1081679986999398	-0.5482203733767772	-0.1838560718849801	-0.1083481317912578	0.02590323882883272	0.01646829909547858	-0.13478308656901	-0.0472065770584764	0.006727663007168459	0.1107367256857488	-39.20187596586099	2.321454663218784	1.200099391976693	0.3387513405607674	-433.9655290378225	-62.41399877858956	-13.46981049048378	0.3771453307260504	0.375331122708682	-0.6430642292975955	-0.9395181016355528	0.3003606081541752	-0.187494764648389	1.252617635758504	-0.9899268136314952	-0.9899268136314151	-0.08664488795166468	0.4795473007608114	-0.4399827886097599	0.4013303270584342	1.553879492010406e-07	3.396736927310719e-06	-2.60606676408743e-06	3.423350934993426e-07	6.96335048447979e-07	2.881913341694447e-06	5.376480439540276e-07
1.51	-0.2800376681176691	0.0776898245468931	0.8171545068284497	0.8378430443345714	-0.3717627531043986	-0.04668828569758531	-0.3066525459471665	0.716623675902919	0.7166236759028164	-0.09301516187502984	-0.1579903160246685	0.2669236524044153	0.1340179851824938	0.3326759214262489	0.2381441794313045	0.3818962326908595	-1.928255544154073	0.01774081396459695	-0.5504988584920258	0.6305804553748701	-1.99528702144933	-1.99528702144938	-0.2272091363098508	0.112298383974694	-0.5525539066583006	-0.1803179235453319	-0.1049886535142159	0.02443829231347183	0.01733460859717508	-0.1318093742767231	-0.04729436403044355	0.005429951298177603	0.1077690809059139	-39.19825269260074	2.792964577825855	1.229387169706411	0.6392226102624162	-431.5835839681504	-62.00596702507541	-14.23959689743283	0.3609179015822833	0.3519936309435217	-0.6890010707594558	-0.8185054329943574	0.2466338345134911	-0.1841556147895521	1.173968910333372	-0.8566322061468913	-0.8566322061373508	-0.1667425797642041	0.3810305639368979	-0.4183764192427491	0.3334045321850004	1.438827508488721e-07	3.738262031018519e-06	-2.4898033303547e-06	3.897910803429136e-07	6.896936560853949e-07	3.022240194180416e-06	5.462725492964941e-07
1.52	-0.2766937751645368	0.08008840496188145	0.8209381967726603	0.8185230778488963	-0.3715720332740637	-0.05220093046704354	-0.3002886953010416	0.6966311703278385	0.6966311703278162	-0.0952938295413934	-0.1568464849557302	0.2613783935680011	0.1322330437403003	0.3360433965068794	0.2415287122189204	0.3747612152046507	-1.935461402799421	0.02040738131623616	-0.5519544156123096	0.6420915155865554	-2.002942284372716	-2.002942284372703	-0.2285070567592701	0.1164786261736521	-0.5564209527925902	-0.1766458774150076	-0.1016291752377453	0.02297334579793417	0.01820091810076636	-0.1288356619847177	-0.04738215100249023	0.004132239588896015	0.1048014361256156	-39.19157464861478	3.257420033840276	1.267247923375983	0.9069102000193475	-429.1837158958677	-61.67569735712596	-15.00915762904844	0.3061544429632048	0.3241642840557808	-0.7386153293067219	-0.6077010024200789	0.3054341508004457	-0.092183678133602	1.134827721424235	-0.6646369345028111	-0.664636934502749	-0.06204175782647943	0.4895186856015285	-0.346685359163173	0.42810988519356	1.244341992896438e-07	4.074423759483005e-06	-2.319937815756616e-06	4.429550508582909e-07	6.504622827899433e-07	3.115135456743902e-06	5.502291733712702e-07
1.53	-0.2733180512973437	0.08251954870140862	0.8246482040247174	0.7991394555209321	-0.3713544629049709	-0.05772692936862658	-0.2938126841660887	0.676570500469887	0.6765705004697269	-0.0975840671478348	-0.155661465827515	0.2557969699364064	0.1304856657320763	0.3390407795139234	0.2446559623276801	0.3671683251835091	-1.940986401457328	0.02310633327594898	-0.5531695683781622	0.6530021424953848	-2.008911947767028	-2.008911947767023	-0.229526530981076	0.1205271934829391	-0.5597784109376578	-0.1728100951628914	-0.09819022678919263	0.02147230985192337	0.01901351329421743	-0.1261630379113954	-0.04711777163936867	0.002561424608946671	0.1017892551863778	-39.10395925333794	3.852834938307965	1.253934138016252	1.130442884750765	-426.9928180750463	-61.14190935028482	-15.77348849457334	0.2874568154989911	0.3005011486069712	-0.7803049291698626	-0.4833804581382219	0.251911109339887	-0.1242674222312363	1.052894839949761	-0.5212798597632435	-0.5212798597641737	-0.1192154320628254	0.362535737599295	-0.3173260324927108	0.3637719153787324	9.654583494791442e-08	4.404886901751471e-06	-2.093120090239094e-06	5.021837540249624e-07	5.766040547533202e-07	3.15763465501475e-06	5.492261735991254e-07
